<svg width="133" height="41" viewBox="0 0 133 41" fill="none" xmlns="http://www.w3.org/2000/svg">
<g clip-path="url(#clip0_4710_165)">
<path d="M19.9344 13.5793C22.2517 13.5793 24.1 14.4621 24.6241 15.6483V13.9931H28.3758V29.7449H24.6241V28.0897C24.1 29.2483 22.2793 30.1587 19.9344 30.1587C15.7138 30.1587 11.9344 26.7931 11.9344 21.8828C11.9344 16.9725 15.7413 13.5793 19.9344 13.5793ZM20.431 26.0483C22.362 26.0483 24.0448 25.138 24.5413 23.9793V19.7862C24.0448 18.6 22.362 17.7173 20.431 17.7173C17.7275 17.7173 15.8793 19.4276 15.8793 21.9104C15.8793 24.3655 17.7 26.0483 20.431 26.0483Z" fill="#DB3727"/>
<path d="M32.7896 13.9932H36.6793V22.4897C36.6793 24.7518 38.1138 26.0483 40.0172 26.0483C41.6724 26.0483 43.2172 25.0276 43.4931 23.6759V14.0207H47.3827V29.7725H43.631V28.1725C43.2172 29.3311 41.7 30.1863 39.4379 30.1863C36.2103 30.1863 32.7896 28.0345 32.7896 23.1518V13.9932Z" fill="#DB3727"/>
<path d="M62.2241 28.338C61.4792 29.3863 60.0723 30.1863 58.3068 30.1863C54.831 30.1863 53.1482 28.2001 53.1482 24.807V18.1311H50.4448V16.8897L55.8517 10.0483H57.0379V14.0208H62.031V18.1587H57.0103V23.9794C57.0103 25.5518 57.9206 26.0759 58.9689 26.0759C60.0448 26.0759 60.6792 25.6897 61.3965 24.8897L62.2241 28.338Z" fill="#DB3727"/>
<path d="M73.1206 30.1862C68.6517 30.1862 64.8172 26.6828 64.8172 21.9104C64.8172 17.138 68.6793 13.6069 73.1206 13.6069C77.5896 13.6069 81.4241 17.1656 81.4241 21.9104C81.4517 26.6552 77.5896 30.1862 73.1206 30.1862ZM73.1206 26.0483C75.5758 26.0483 77.5344 24.3656 77.5344 21.8828C77.5344 19.4 75.5758 17.6897 73.1206 17.6897C70.6655 17.6897 68.7069 19.4 68.7069 21.8828C68.7069 24.3656 70.6931 26.0483 73.1206 26.0483Z" fill="#DB3727"/>
<path d="M86.6379 24.8621C88.1275 24.8621 89.2862 26.0207 89.2862 27.5103C89.2862 29 88.1275 30.1586 86.6379 30.1586C85.1482 30.1586 83.9896 29 83.9896 27.5103C83.9896 26.0207 85.1207 24.8621 86.6379 24.8621Z" fill="#DB3727"/>
<path d="M102.693 18.3518C102.224 18.0483 101.507 17.7173 100.624 17.7173C98.831 17.7173 97.6448 18.8483 97.3413 20.2828V29.7724H93.4517V14.0207H97.2034V16.0897C97.6723 14.6276 98.9137 13.5793 100.679 13.5793C101.838 13.5793 102.831 14.1311 103.217 14.7655L102.693 18.3518Z" fill="#DB3727"/>
<path d="M105.893 13.9932H109.783V22.4897C109.783 24.7518 111.217 26.0483 113.121 26.0483C114.776 26.0483 116.321 25.0276 116.597 23.6759V14.0207H120.486V29.7725H116.734V28.1725C116.321 29.3311 114.803 30.1863 112.541 30.1863C109.286 30.1863 105.893 28.0345 105.893 23.1518V13.9932Z" fill="#DB3727"/>
</g>
<defs>
<clipPath id="clip0_4710_165">
<rect width="109" height="20" fill="white" transform="translate(12 10.5)"/>
</clipPath>
</defs>
</svg>
