<svg width="155" height="41" viewBox="0 0 155 41" fill="none" xmlns="http://www.w3.org/2000/svg">
<path fill-rule="evenodd" clip-rule="evenodd" d="M139.142 11.6203H141.74H141.902V29.5631H139.954V14.8679L132.728 27.2086L125.502 14.8679V29.5631H123.554V11.6203H123.797H126.314L132.647 23.1491L139.142 11.6203ZM17.0337 23.3115L21.1744 14.4619L25.315 23.3115H17.0337ZM22.3922 11.6203H19.9565L12 29.4819H14.1109L15.8159 25.9096H26.4516L28.1566 29.4819H30.2675L22.3922 11.6203ZM33.7586 26.8838H40.7409C42.8518 26.8838 44.5568 25.8284 44.5568 24.1234C44.5568 22.4184 42.8518 21.363 40.7409 21.363H33.7586V26.8838V26.8838ZM43.8261 16.654C43.8261 15.1926 42.5271 14.2183 40.4161 14.2183H33.7586V19.0897H40.4161C42.5271 19.0897 43.8261 18.1154 43.8261 16.654ZM45.6934 16.2481C45.6934 17.7907 44.8003 19.1709 43.5013 20.064C45.2875 20.957 46.5053 22.5808 46.5053 24.5294C46.5053 27.2898 44.3132 29.5631 40.8221 29.5631H31.8913V11.6203H40.4161C43.2578 11.6203 45.6934 13.2441 45.6934 16.2481ZM90.7533 26.8838H85.882V14.2183H90.7533C94.9751 14.2183 98.4663 17.06 98.4663 20.5511C98.4663 24.0422 95.0563 26.8838 90.7533 26.8838ZM90.7533 11.6203H83.9334V29.5631H90.7533C96.0306 29.5631 100.334 25.5848 100.334 20.6323C100.415 15.5986 96.1118 11.6203 90.7533 11.6203ZM104.231 20.5511C104.231 24.2858 107.641 27.2898 111.944 27.2898C116.165 27.2898 119.657 24.2858 119.657 20.5511C119.657 16.8164 116.247 13.8124 111.944 13.8124C107.641 13.8124 104.231 16.8164 104.231 20.5511ZM102.282 20.5511C102.282 15.355 106.585 11.2144 111.862 11.2144C117.14 11.2144 121.443 15.355 121.443 20.5511C121.443 25.7472 117.14 29.8878 111.862 29.8878C106.585 29.8878 102.282 25.7472 102.282 20.5511ZM47.3984 11.6203V14.2183H54.0559V29.5631H56.0044V14.2183H62.6619V11.6203H47.3984ZM72.6482 27.2898C68.4263 27.2898 64.9352 24.2858 64.9352 20.5511C64.9352 16.8164 68.3452 13.8124 72.6482 13.8124C76.87 13.8124 80.3611 16.8164 80.3611 20.5511C80.3611 24.2858 76.9512 27.2898 72.6482 27.2898ZM72.6482 11.2144C67.3709 11.2144 63.0679 15.355 63.0679 20.5511C63.0679 25.7472 67.3709 29.8878 72.6482 29.8878C77.9255 29.8878 82.2285 25.7472 82.2285 20.5511C82.3097 15.355 78.0066 11.2144 72.6482 11.2144Z" fill="#0D0A19"/>
</svg>
